<svg width="120" height="18" viewBox="0 0 120 18" fill="none" xmlns="http://www.w3.org/2000/svg">
    <path d="M9.33367 16.0003H0V18H9.33367V16.0003Z" fill="white"/>
    <path d="M14.0004 14.0005H9.33361V16.0003H14.0004V14.0005Z" fill="white"/>
    <path d="M9.33367 12.0008H0V14.0005H9.33367V12.0008Z" fill="white"/>
    <path d="M18.6674 10.0011H14.0005V12.0009H18.6674V10.0011Z" fill="white"/>
    <path d="M14.0005 8.00136H0V10.0011H14.0005V8.00136Z" fill="white"/>
    <path d="M18.6674 6.00147H14.0005V8.00121H18.6674V6.00147Z" fill="white"/>
    <path d="M9.33367 3.99953H0V5.99927H9.33367V3.99953Z" fill="white"/>
    <path d="M14.0004 1.99977H9.33361V3.99951H14.0004V1.99977Z" fill="white"/>
    <path d="M9.33367 0H0V1.99974H9.33367V0Z" fill="white"/>
    <path d="M117.793 16.2943C118.318 16.2943 118.79 16.2219 119.196 16.0796L119.032 14.5092C118.787 14.5745 118.573 14.6049 118.36 14.6049C117.385 14.6049 116.893 14.0775 116.893 13.0392V7.62096H119.14V6.13924H116.893V3.42314H115.005V6.13924H113.381V7.62563H115.005V13.4078C115.005 15.3492 115.917 16.2943 117.796 16.2943H117.793Z"
          fill="white"/>
    <path d="M111.53 7.30354C110.527 6.33284 109.162 5.79849 107.79 5.84282C106.369 5.84282 105.121 6.31417 104.075 7.24054C103.016 8.17624 102.502 9.42695 102.502 11.0673C102.502 12.7077 102.969 13.8348 103.928 14.7565V14.7518L104.075 14.8825C105.121 15.8112 106.369 16.2802 107.785 16.2802C109.167 16.3222 110.527 15.7925 111.528 14.8195C112.23 14.1381 113.068 12.9341 113.068 11.0603C113.068 9.18661 112.23 7.98023 111.528 7.30121L111.53 7.30354ZM110.161 13.5828C109.51 14.2315 108.702 14.5605 107.764 14.5605C106.826 14.5605 106.042 14.2315 105.391 13.5828C104.757 12.9481 104.435 12.1011 104.435 11.0697C104.435 10.0383 104.757 9.18894 105.391 8.55659C106.042 7.9079 106.843 7.57889 107.764 7.57889C108.686 7.57889 109.507 7.9079 110.161 8.55659C110.809 9.20528 111.138 10.0523 111.138 11.0697C111.138 12.087 110.809 12.9364 110.161 13.5828Z"
          fill="white"/>
    <path d="M96.4519 16.285C97.7936 16.285 98.9253 15.8043 99.812 14.8546C100.713 13.8745 101.168 12.6005 101.168 11.0651C101.168 9.52971 100.72 8.24166 99.833 7.29429C98.958 6.31892 97.8846 5.84524 96.5569 5.84524C95.1312 5.84524 93.8478 6.5056 93.1244 7.61164L92.9611 7.86131V1.99977H91.0734V15.9979H92.9611V14.3039L93.1244 14.5629C93.7965 15.6246 95.0728 16.285 96.4542 16.285H96.4519ZM92.8281 11.0698C92.8281 10.0571 93.1431 9.21703 93.7638 8.57767C94.3915 7.90565 95.1335 7.57664 96.0342 7.57664C96.9349 7.57664 97.7096 7.91498 98.3116 8.58001C98.93 9.2147 99.245 10.0524 99.245 11.0698C99.245 12.0871 98.9393 12.9108 98.3116 13.5805C97.7119 14.2222 96.9232 14.5606 96.0342 14.5606C95.1452 14.5606 94.3938 14.2315 93.7638 13.5805C93.1431 12.9202 92.8281 12.0755 92.8281 11.0674V11.0698Z"
          fill="white"/>
    <path d="M88.1962 7.30354C87.1928 6.33284 85.8278 5.79849 84.4557 5.84282C83.0347 5.84282 81.7863 6.31417 80.7409 7.24054C79.6815 8.17624 79.1682 9.42695 79.1682 11.0673C79.1682 12.7077 79.6349 13.8348 80.5939 14.7565V14.7518L80.7409 14.8825C81.7863 15.8112 83.0347 16.2802 84.4511 16.2802C85.8348 16.3222 87.1928 15.7925 88.1939 14.8195C88.8962 14.1381 89.7339 12.9341 89.7339 11.0603C89.7339 9.18661 88.8962 7.98023 88.1939 7.30121L88.1962 7.30354ZM86.8288 13.5828C86.1778 14.2315 85.3704 14.5605 84.4324 14.5605C83.4944 14.5605 82.7103 14.2315 82.0593 13.5828C81.4246 12.9481 81.1026 12.1011 81.1026 11.0697C81.1026 10.0383 81.4246 9.18894 82.0593 8.55659C82.7103 7.9079 83.5107 7.57889 84.4324 7.57889C85.3541 7.57889 86.1754 7.9079 86.8288 8.55659C87.4775 9.20528 87.8065 10.0523 87.8065 11.0697C87.8065 12.087 87.4775 12.9341 86.8288 13.5828Z"
          fill="white"/>
    <path d="M73.0383 10.0734L76.3191 16.0073H78.6455L75.136 9.87742L75.248 9.84709C77.3131 9.3104 78.5451 7.84268 78.5451 5.91995C78.5451 4.74857 78.1321 3.8222 77.2804 3.08951C76.4241 2.35448 75.2947 1.99747 73.8316 1.99747H68.0634V16.005H70.0772V10.0244H73.0149L73.0406 10.0711H73.0383V10.0734ZM70.0772 3.72653H73.694C75.584 3.72653 76.5407 4.49889 76.5407 6.02262C76.5407 7.54634 75.584 8.30237 73.694 8.30237H70.0772V3.72653Z"
          fill="white"/>
    <path d="M61.5976 5.85686H61.3876C60.2768 5.8872 59.3995 6.16254 58.7135 6.69922C58.0904 7.18924 57.7428 7.74693 57.6541 8.40495C57.6541 8.40495 57.6051 8.7993 57.5981 9.00931H59.3668C59.3691 8.78997 59.4485 8.40729 59.4485 8.40729C59.5815 7.66759 60.3959 7.21024 61.5976 7.21024C63.035 7.21024 63.7933 7.84493 63.7933 9.04198V9.546L60.5382 10.064C58.3331 10.407 57.0684 11.5784 57.0684 13.2795C57.0684 15.0809 58.4101 16.2919 60.4052 16.2919C61.9196 16.2919 63.0163 15.6199 63.6673 14.2968L63.8353 13.9538V16.0096H65.6834V16.0166L65.6857 9.17265C65.6857 7.0049 64.274 5.85686 61.5999 5.85686H61.5976ZM63.7956 11.3124C63.7793 13.3355 62.5239 14.7449 60.7295 14.7449C59.6725 14.7449 58.9608 14.1078 58.9608 13.1581C58.9608 12.2084 59.6398 11.6017 60.9815 11.3684L63.8026 10.883L63.7956 11.3124Z"
          fill="white"/>
    <path d="M54.6184 16.2943C55.1434 16.2943 55.6148 16.2219 56.0208 16.0796L55.8575 14.5092C55.6124 14.5745 55.3978 14.6049 55.1854 14.6049C54.2101 14.6049 53.7177 14.0775 53.7177 13.0392V7.62096H55.9648V6.13924H53.7177V3.42314H51.83V6.13924H50.2059V7.62563H51.83V13.4078C51.83 15.3492 52.7423 16.2943 54.6207 16.2943H54.6184Z"
          fill="white"/>
    <path d="M45.1282 5.85686H44.9182C43.8075 5.8872 42.9301 6.16254 42.2441 6.69922C41.6211 7.18924 41.2734 7.74693 41.1847 8.40495C41.1847 8.40495 41.1357 8.7993 41.1287 9.00931H42.8975C42.8998 8.78997 42.9791 8.40729 42.9791 8.40729C43.1121 7.66759 43.9265 7.21024 45.1282 7.21024C46.5656 7.21024 47.324 7.84493 47.324 9.04198V9.546L44.0688 10.064C41.8638 10.407 40.599 11.5784 40.599 13.2795C40.599 15.0809 41.9408 16.2919 43.9358 16.2919C45.4502 16.2919 46.5469 15.6199 47.1979 14.2968L47.366 13.9538V16.0096H49.214V16.0166L49.2164 9.17265C49.2164 7.0049 47.8046 5.85686 45.1305 5.85686H45.1282ZM47.3263 11.3124C47.31 13.3355 46.0546 14.7449 44.2602 14.7449C43.2031 14.7449 42.4914 14.1078 42.4914 13.1581C42.4914 12.2084 43.1705 11.6017 44.5122 11.3684L47.3333 10.883L47.3263 11.3124Z"
          fill="white"/>
    <path d="M37.5284 14.1826C38.8795 12.9763 39.5655 11.2332 39.5655 9.00478C39.5655 6.77637 38.9005 5.07064 37.5284 3.84093C36.1634 2.62055 34.362 2.00219 32.1732 2.00219H28.1667V16.0027H32.1732C34.4133 16.0027 36.1657 15.4077 37.5284 14.185V14.1826ZM30.1758 3.81059H32.2129C35.58 3.81059 37.5121 5.70299 37.5121 9.00478C37.5121 12.3066 35.615 14.164 32.3016 14.199V14.2036H30.1758V3.81059Z"
          fill="white"/>
</svg>
